<mxfile host="app.diagrams.net" modified="2020-08-13T09:05:19.221Z" agent="5.0 (Windows NT 10.0; WOW64) AppleWebKit/537.36 (KHTML, like Gecko) Chrome/70.0.3538.25 Safari/537.36 Core/1.70.3775.400 QQBrowser/10.6.4208.400" etag="9wuPtXJgK7kuESl4Xh0u" version="13.6.0" type="github">
  <diagram id="hVP1Le8sTzmIoUoRDAnq" name="Page-1">
    <mxGraphModel dx="1381" dy="769" grid="1" gridSize="10" guides="1" tooltips="1" connect="1" arrows="1" fold="1" page="1" pageScale="1" pageWidth="827" pageHeight="1169" math="0" shadow="0">
      <root>
        <mxCell id="0" />
        <mxCell id="1" parent="0" />
        <mxCell id="XEBLtiGvCpJ2jnbF5ncU-4" style="edgeStyle=orthogonalEdgeStyle;rounded=0;orthogonalLoop=1;jettySize=auto;html=1;exitX=0.5;exitY=1;exitDx=0;exitDy=0;entryX=0.5;entryY=0;entryDx=0;entryDy=0;strokeWidth=2;" edge="1" parent="1" source="XEBLtiGvCpJ2jnbF5ncU-1" target="XEBLtiGvCpJ2jnbF5ncU-2">
          <mxGeometry relative="1" as="geometry" />
        </mxCell>
        <mxCell id="XEBLtiGvCpJ2jnbF5ncU-1" value="初始化开始" style="ellipse;whiteSpace=wrap;html=1;aspect=fixed;strokeWidth=2;" vertex="1" parent="1">
          <mxGeometry x="350" y="30" width="80" height="80" as="geometry" />
        </mxCell>
        <mxCell id="XEBLtiGvCpJ2jnbF5ncU-8" style="edgeStyle=orthogonalEdgeStyle;rounded=0;orthogonalLoop=1;jettySize=auto;html=1;exitX=0.5;exitY=1;exitDx=0;exitDy=0;entryX=0.5;entryY=0;entryDx=0;entryDy=0;strokeWidth=2;" edge="1" parent="1" source="XEBLtiGvCpJ2jnbF5ncU-2" target="XEBLtiGvCpJ2jnbF5ncU-6">
          <mxGeometry relative="1" as="geometry" />
        </mxCell>
        <mxCell id="XEBLtiGvCpJ2jnbF5ncU-2" value="根据配置计算SHM_KEY" style="rounded=0;whiteSpace=wrap;html=1;strokeWidth=2;" vertex="1" parent="1">
          <mxGeometry x="330" y="160" width="120" height="60" as="geometry" />
        </mxCell>
        <mxCell id="XEBLtiGvCpJ2jnbF5ncU-6" value="是否为RESUME模式？" style="rhombus;whiteSpace=wrap;html=1;strokeWidth=2;" vertex="1" parent="1">
          <mxGeometry x="312.5" y="280" width="155" height="70" as="geometry" />
        </mxCell>
      </root>
    </mxGraphModel>
  </diagram>
</mxfile>
